  0
SECTION
  2
HEADER
  9
$ACADVER
  1
AC1014
  9
$HANDSEED
  5
FFFF
  9
$INSUNITS
 70
     4
  9
$MEASUREMENT
 70
     1
  0
ENDSEC
  0
SECTION
  2
TABLES
  0
TABLE
  2
VPORT
  5
8
330
0
100
AcDbSymbolTable
 70
     4
  0
VPORT
  5
2E
330
8
100
AcDbSymbolTableRecord
100
AcDbViewportTableRecord
  2
*ACTIVE
 70
     0
 10
0.0
 20
0.0
 11
1.0
 21
1.0
 12
210.0
 22
148.5
 13
0.0
 23
0.0
 14
10.0
 24
10.0
 15
10.0
 25
10.0
 16
0.0
 26
0.0
 36
1.0
 17
0.0
 27
0.0
 37
0.0
 40
341.0
 41
1.24
 42
50.0
 43
0.0
 44
0.0
 50
0.0
 51
0.0
 71
     0
 72
   100
 73
     1
 74
     3
 75
     0
 76
     0
 77
     0
 78
     0
  0
ENDTAB
  0
TABLE
  2
LTYPE
  5
5
330
0
100
AcDbSymbolTable
 70
     1
  0
LTYPE
  5
14
330
5
100
AcDbSymbolTableRecord
100
AcDbLinetypeTableRecord
  2
BYBLOCK
 70
     0
  3

 72
    65
 73
     0
 40
0.0
  0
LTYPE
  5
15
330
5
100
AcDbSymbolTableRecord
100
AcDbLinetypeTableRecord
  2
BYLAYER
 70
     0
  3

 72
    65
 73
     0
 40
0.0
  0
LTYPE
  5
16
330
5
100
AcDbSymbolTableRecord
100
AcDbLinetypeTableRecord
  2
CONTINUOUS
 70
     0
  3
Solid line
 72
    65
 73
     0
 40
0.0
  0
ENDTAB
  0
TABLE
  2
LAYER
  5
2
100
AcDbSymbolTable
 70
2
  0
LAYER
  5
50
100
AcDbSymbolTableRecord
100
AcDbLayerTableRecord
  2
0
 70
0
  6
CONTINUOUS
  0
LAYER
  5
51
100
AcDbSymbolTableRecord
100
AcDbLayerTableRecord
  2
Ebene_1
 70
0
  6
CONTINUOUS
  0
ENDTAB
  0
TABLE
  2
STYLE
  5
3
330
0
100
AcDbSymbolTable
 70
     1
  0
STYLE
  5
11
330
3
100
AcDbSymbolTableRecord
100
AcDbTextStyleTableRecord
  2
STANDARD
 70
     0
 40
0.0
 41
1.0
 50
0.0
 71
     0
 42
2.5
  3
txt
  4

  0
ENDTAB
  0
TABLE
  2
VIEW
  5
6
330
0
100
AcDbSymbolTable
 70
     0
  0
ENDTAB
  0
TABLE
  2
UCS
  5
7
330
0
100
AcDbSymbolTable
 70
     0
  0
ENDTAB
  0
TABLE
  2
APPID
  5
9
330
0
100
AcDbSymbolTable
 70
     2
  0
APPID
  5
12
330
9
100
AcDbSymbolTableRecord
100
AcDbRegAppTableRecord
  2
ACAD
 70
     0
  0
ENDTAB
  0
TABLE
  2
DIMSTYLE
  5
A
330
0
100
AcDbSymbolTable
 70
     1
  0
DIMSTYLE
105
27
330
A
100
AcDbSymbolTableRecord
100
AcDbDimStyleTableRecord
  2
ISO-25
 70
     0
  3

  4

  5

  6

  7

 40
1.0
 41
2.5
 42
0.625
 43
3.75
 44
1.25
 45
0.0
 46
0.0
 47
0.0
 48
0.0
140
2.5
141
2.5
142
0.0
143
0.03937007874016
144
1.0
145
0.0
146
1.0
147
0.625
 71
     0
 72
     0
 73
     0
 74
     0
 75
     0
 76
     0
 77
     1
 78
     8
170
     0
171
     3
172
     1
173
     0
174
     0
175
     0
176
     0
177
     0
178
     0
270
     2
271
     2
272
     2
273
     2
274
     3
340
11
275
     0
280
     0
281
     0
282
     0
283
     0
284
     8
285
     0
286
     0
287
     3
288
     0
  0
ENDTAB
  0
TABLE
  2
BLOCK_RECORD
  5
1
330
0
100
AcDbSymbolTable
 70
     1
  0
BLOCK_RECORD
  5
1F
330
1
100
AcDbSymbolTableRecord
100
AcDbBlockTableRecord
  2
*MODEL_SPACE
  0
BLOCK_RECORD
  5
1B
330
1
100
AcDbSymbolTableRecord
100
AcDbBlockTableRecord
  2
*PAPER_SPACE
  0
ENDTAB
  0
ENDSEC
  0
SECTION
  2
BLOCKS
  0
BLOCK
  5
20
330
1F
100
AcDbEntity
  8
0
100
AcDbBlockBegin
  2
*MODEL_SPACE
 70
     0
 10
0.0
 20
0.0
 30
0.0
  3
*MODEL_SPACE
  1

  0
ENDBLK
  5
21
330
1F
100
AcDbEntity
  8
0
100
AcDbBlockEnd
  0
BLOCK
  5
1C
330
1B
100
AcDbEntity
 67
     1
  8
0
100
AcDbBlockBegin
  2
*PAPER_SPACE
  1

  0
ENDBLK
  5
1D
330
1B
100
AcDbEntity
 67
     1
  8
0
100
AcDbBlockEnd
  0
ENDSEC
  0
SECTION
  2
ENTITIES
  0
SPLINE
  5
100
100
AcDbEntity
  8
Ebene_1
 62
7
100
AcDbSpline
 70
8
 71
3
 72
8
 73
4
 74
0
 40
0
 40
0
 40
0
 40
0
 40
1
 40
1
 40
1
 40
1
 10
8.956263
 20
6.596306
 30
0.0
 10
6.416822
 20
6.644716
 30
0.0
 10
6.394666
 20
6.646806
 30
0.0
 10
5.884966
 20
6.885701
 30
0.0
  0
SPLINE
  5
101
100
AcDbEntity
  8
Ebene_1
 62
7
100
AcDbSpline
 70
8
 71
3
 72
8
 73
4
 74
0
 40
0
 40
0
 40
0
 40
0
 40
1
 40
1
 40
1
 40
1
 10
5.884966
 20
6.885701
 30
0.0
 10
4.899469
 20
7.347599
 30
0.0
 10
4.199480
 20
8.365974
 30
0.0
 10
4.199480
 20
9.337821
 30
0.0
  0
SPLINE
  5
102
100
AcDbEntity
  8
Ebene_1
 62
7
100
AcDbSpline
 70
8
 71
3
 72
8
 73
4
 74
0
 40
0
 40
0
 40
0
 40
0
 40
1
 40
1
 40
1
 40
1
 10
4.199480
 20
9.337821
 30
0.0
 10
4.199480
 20
10.476287
 30
0.0
 10
5.105579
 20
11.725959
 30
0.0
 10
6.132616
 20
12.003959
 30
0.0
  0
SPLINE
  5
103
100
AcDbEntity
  8
Ebene_1
 62
7
100
AcDbSpline
 70
8
 71
3
 72
8
 73
4
 74
0
 40
0
 40
0
 40
0
 40
0
 40
1
 40
1
 40
1
 40
1
 10
6.132616
 20
12.003959
 30
0.0
 10
6.472450
 20
12.095949
 30
0.0
 10
6.504421
 20
12.133654
 30
0.0
 10
6.643922
 20
12.606998
 30
0.0
  0
SPLINE
  5
104
100
AcDbEntity
  8
Ebene_1
 62
7
100
AcDbSpline
 70
8
 71
3
 72
8
 73
4
 74
0
 40
0
 40
0
 40
0
 40
0
 40
1
 40
1
 40
1
 40
1
 10
6.643922
 20
12.606998
 30
0.0
 10
6.827808
 20
13.230950
 30
0.0
 10
7.198228
 20
13.753165
 30
0.0
 10
7.787097
 20
14.218639
 30
0.0
  0
SPLINE
  5
105
100
AcDbEntity
  8
Ebene_1
 62
7
100
AcDbSpline
 70
8
 71
3
 72
8
 73
4
 74
0
 40
0
 40
0
 40
0
 40
0
 40
1
 40
1
 40
1
 40
1
 10
7.787097
 20
14.218639
 30
0.0
 10
8.435051
 20
14.730816
 30
0.0
 10
9.104880
 20
14.959165
 30
0.0
 10
10.123021
 20
15.014973
 30
0.0
  0
SPLINE
  5
106
100
AcDbEntity
  8
Ebene_1
 62
7
100
AcDbSpline
 70
8
 71
3
 72
8
 73
4
 74
0
 40
0
 40
0
 40
0
 40
0
 40
1
 40
1
 40
1
 40
1
 10
10.123021
 20
15.014973
 30
0.0
 10
10.853615
 20
15.055023
 30
0.0
 10
11.012809
 20
15.092743
 30
0.0
 10
11.235260
 20
15.278580
 30
0.0
  0
SPLINE
  5
107
100
AcDbEntity
  8
Ebene_1
 62
7
100
AcDbSpline
 70
8
 71
3
 72
8
 73
4
 74
0
 40
0
 40
0
 40
0
 40
0
 40
1
 40
1
 40
1
 40
1
 10
11.235260
 20
15.278580
 30
0.0
 10
11.903852
 20
15.837105
 30
0.0
 10
12.991062
 20
16.203511
 30
0.0
 10
13.979730
 20
16.203511
 30
0.0
  0
SPLINE
  5
108
100
AcDbEntity
  8
Ebene_1
 62
7
100
AcDbSpline
 70
8
 71
3
 72
8
 73
4
 74
0
 40
0
 40
0
 40
0
 40
0
 40
1
 40
1
 40
1
 40
1
 10
13.979730
 20
16.203511
 30
0.0
 10
16.183627
 20
16.203511
 30
0.0
 10
17.963735
 20
14.805725
 30
0.0
 10
18.306669
 20
12.805890
 30
0.0
  0
SPLINE
  5
109
100
AcDbEntity
  8
Ebene_1
 62
7
100
AcDbSpline
 70
8
 71
3
 72
8
 73
4
 74
0
 40
0
 40
0
 40
0
 40
0
 40
1
 40
1
 40
1
 40
1
 10
18.306669
 20
12.805890
 30
0.0
 10
18.412867
 20
12.186589
 30
0.0
 10
18.427916
 20
12.159964
 30
0.0
 10
18.716796
 20
12.080197
 30
0.0
  0
SPLINE
  5
10a
100
AcDbEntity
  8
Ebene_1
 62
7
100
AcDbSpline
 70
8
 71
3
 72
8
 73
4
 74
0
 40
0
 40
0
 40
0
 40
0
 40
1
 40
1
 40
1
 40
1
 10
18.716796
 20
12.080197
 30
0.0
 10
20.169442
 20
11.679103
 30
0.0
 10
21.129220
 20
10.059413
 30
0.0
 10
20.675792
 20
8.774259
 30
0.0
  0
SPLINE
  5
10b
100
AcDbEntity
  8
Ebene_1
 62
7
100
AcDbSpline
 70
8
 71
3
 72
8
 73
4
 74
0
 40
0
 40
0
 40
0
 40
0
 40
1
 40
1
 40
1
 40
1
 10
20.675792
 20
8.774259
 30
0.0
 10
20.509591
 20
8.303192
 30
0.0
 10
20.083729
 20
7.662781
 30
0.0
 10
19.963360
 20
7.702903
 30
0.0
  0
SPLINE
  5
10c
100
AcDbEntity
  8
Ebene_1
 62
7
100
AcDbSpline
 70
8
 71
3
 72
8
 73
4
 74
0
 40
0
 40
0
 40
0
 40
0
 40
1
 40
1
 40
1
 40
1
 10
19.963360
 20
7.702903
 30
0.0
 10
19.911480
 20
7.720203
 30
0.0
 10
19.395538
 20
8.175850
 30
0.0
 10
18.816818
 20
8.715470
 30
0.0
  0
SPLINE
  5
10d
100
AcDbEntity
  8
Ebene_1
 62
7
100
AcDbSpline
 70
8
 71
3
 72
8
 73
4
 74
0
 40
0
 40
0
 40
0
 40
0
 40
1
 40
1
 40
1
 40
1
 10
17.758203
 20
10.131187
 30
0.0
 10
17.753703
 20
10.437128
 30
0.0
 10
17.804953
 20
10.633340
 30
0.0
 10
17.931314
 20
10.793983
 30
0.0
  0
SPLINE
  5
10e
100
AcDbEntity
  8
Ebene_1
 62
7
100
AcDbSpline
 70
8
 71
3
 72
8
 73
4
 74
0
 40
0
 40
0
 40
0
 40
0
 40
1
 40
1
 40
1
 40
1
 10
17.931314
 20
10.793983
 30
0.0
 10
18.239591
 20
11.185894
 30
0.0
 10
18.127081
 20
11.630178
 30
0.0
 10
17.680097
 20
11.785996
 30
0.0
  0
SPLINE
  5
10f
100
AcDbEntity
  8
Ebene_1
 62
7
100
AcDbSpline
 70
8
 71
3
 72
8
 73
4
 74
0
 40
0
 40
0
 40
0
 40
0
 40
1
 40
1
 40
1
 40
1
 10
17.680097
 20
11.785996
 30
0.0
 10
17.016571
 20
12.017304
 30
0.0
 10
16.442419
 20
11.227577
 30
0.0
 10
16.944057
 20
10.773599
 30
0.0
  0
SPLINE
  5
110
100
AcDbEntity
  8
Ebene_1
 62
7
100
AcDbSpline
 70
8
 71
3
 72
8
 73
4
 74
0
 40
0
 40
0
 40
0
 40
0
 40
1
 40
1
 40
1
 40
1
 10
16.944057
 20
10.773599
 30
0.0
 10
17.042787
 20
10.684249
 30
0.0
 10
17.123559
 20
10.568615
 30
0.0
 10
17.123559
 20
10.516627
 30
0.0
  0
SPLINE
  5
111
100
AcDbEntity
  8
Ebene_1
 62
7
100
AcDbSpline
 70
8
 71
3
 72
8
 73
4
 74
0
 40
0
 40
0
 40
0
 40
0
 40
1
 40
1
 40
1
 40
1
 10
17.123559
 20
10.516627
 30
0.0
 10
17.123559
 20
10.464637
 30
0.0
 10
16.941814
 20
10.600467
 30
0.0
 10
16.719681
 20
10.818474
 30
0.0
  0
SPLINE
  5
112
100
AcDbEntity
  8
Ebene_1
 62
7
100
AcDbSpline
 70
8
 71
3
 72
8
 73
4
 74
0
 40
0
 40
0
 40
0
 40
0
 40
1
 40
1
 40
1
 40
1
 10
16.719681
 20
10.818474
 30
0.0
 10
16.369976
 20
11.161685
 30
0.0
 10
16.315803
 20
11.264650
 30
0.0
 10
16.315803
 20
11.586131
 30
0.0
  0
SPLINE
  5
113
100
AcDbEntity
  8
Ebene_1
 62
7
100
AcDbSpline
 70
8
 71
3
 72
8
 73
4
 74
0
 40
0
 40
0
 40
0
 40
0
 40
1
 40
1
 40
1
 40
1
 10
16.315803
 20
11.586131
 30
0.0
 10
16.315803
 20
11.843429
 30
0.0
 10
16.370913
 20
12.007283
 30
0.0
 10
16.495305
 20
12.119858
 30
0.0
  0
SPLINE
  5
114
100
AcDbEntity
  8
Ebene_1
 62
7
100
AcDbSpline
 70
8
 71
3
 72
8
 73
4
 74
0
 40
0
 40
0
 40
0
 40
0
 40
1
 40
1
 40
1
 40
1
 10
16.495305
 20
12.119858
 30
0.0
 10
16.741248
 20
12.342434
 30
0.0
 10
16.732606
 20
12.821898
 30
0.0
 10
16.478385
 20
13.058744
 30
0.0
  0
SPLINE
  5
115
100
AcDbEntity
  8
Ebene_1
 62
7
100
AcDbSpline
 70
8
 71
3
 72
8
 73
4
 74
0
 40
0
 40
0
 40
0
 40
0
 40
1
 40
1
 40
1
 40
1
 10
16.478385
 20
13.058744
 30
0.0
 10
16.116429
 20
13.395958
 30
0.0
 10
15.500286
 20
13.221608
 30
0.0
 10
15.381508
 20
12.748366
 30
0.0
  0
SPLINE
  5
116
100
AcDbEntity
  8
Ebene_1
 62
7
100
AcDbSpline
 70
8
 71
3
 72
8
 73
4
 74
0
 40
0
 40
0
 40
0
 40
0
 40
1
 40
1
 40
1
 40
1
 10
15.381508
 20
12.748366
 30
0.0
 10
15.324338
 20
12.520580
 30
0.0
 10
15.448908
 20
12.175710
 30
0.0
 10
15.631076
 20
12.057426
 30
0.0
  0
SPLINE
  5
117
100
AcDbEntity
  8
Ebene_1
 62
7
100
AcDbSpline
 70
8
 71
3
 72
8
 73
4
 74
0
 40
0
 40
0
 40
0
 40
0
 40
1
 40
1
 40
1
 40
1
 10
15.631076
 20
12.057426
 30
0.0
 10
15.683956
 20
12.023086
 30
0.0
 10
15.707776
 20
11.975546
 30
0.0
 10
15.684006
 20
11.951771
 30
0.0
  0
SPLINE
  5
118
100
AcDbEntity
  8
Ebene_1
 62
7
100
AcDbSpline
 70
8
 71
3
 72
8
 73
4
 74
0
 40
0
 40
0
 40
0
 40
0
 40
1
 40
1
 40
1
 40
1
 10
15.684006
 20
11.951771
 30
0.0
 10
15.660236
 20
11.927991
 30
0.0
 10
15.429174
 20
12.110415
 30
0.0
 10
15.170539
 20
12.357136
 30
0.0
  0
SPLINE
  5
119
100
AcDbEntity
  8
Ebene_1
 62
7
100
AcDbSpline
 70
8
 71
3
 72
8
 73
4
 74
0
 40
0
 40
0
 40
0
 40
0
 40
1
 40
1
 40
1
 40
1
 10
15.170539
 20
12.357136
 30
0.0
 10
14.761562
 20
12.747270
 30
0.0
 10
14.700292
 20
12.851002
 30
0.0
 10
14.700292
 20
13.153267
 30
0.0
  0
SPLINE
  5
11a
100
AcDbEntity
  8
Ebene_1
 62
7
100
AcDbSpline
 70
8
 71
3
 72
8
 73
4
 74
0
 40
0
 40
0
 40
0
 40
0
 40
1
 40
1
 40
1
 40
1
 10
14.700292
 20
13.153267
 30
0.0
 10
14.700292
 20
13.563248
 30
0.0
 10
14.462667
 20
13.780244
 30
0.0
 10
14.013706
 20
13.780244
 30
0.0
  0
SPLINE
  5
11b
100
AcDbEntity
  8
Ebene_1
 62
7
100
AcDbSpline
 70
8
 71
3
 72
8
 73
4
 74
0
 40
0
 40
0
 40
0
 40
0
 40
1
 40
1
 40
1
 40
1
 10
14.013706
 20
13.780244
 30
0.0
 10
13.704804
 20
13.780244
 30
0.0
 10
13.354033
 20
13.446179
 30
0.0
 10
13.354033
 20
13.151991
 30
0.0
  0
SPLINE
  5
11c
100
AcDbEntity
  8
Ebene_1
 62
7
100
AcDbSpline
 70
8
 71
3
 72
8
 73
4
 74
0
 40
0
 40
0
 40
0
 40
0
 40
1
 40
1
 40
1
 40
1
 10
13.354033
 20
13.151991
 30
0.0
 10
13.354033
 20
12.891979
 30
0.0
 10
13.703693
 20
12.533623
 30
0.0
 10
14.014238
 20
12.475362
 30
0.0
  0
SPLINE
  5
11d
100
AcDbEntity
  8
Ebene_1
 62
7
100
AcDbSpline
 70
8
 71
3
 72
8
 73
4
 74
0
 40
0
 40
0
 40
0
 40
0
 40
1
 40
1
 40
1
 40
1
 10
14.014238
 20
12.475362
 30
0.0
 10
14.251191
 20
12.430912
 30
0.0
 10
14.806839
 20
11.908626
 30
0.0
 10
16.901295
 20
9.761653
 30
0.0
  0
LWPOLYLINE
  5
11e
100
AcDbEntity
  8
Ebene_1
 62
7
100
AcDbPolyline
 90
3
 70
0
 10
18.816818
 20
8.715470
 30
0.0
 10
17.764603
 20
9.696592
 30
0.0
 10
17.758203
 20
10.131187
 30
0.0
  0
SPLINE
  5
11f
100
AcDbEntity
  8
Ebene_1
 62
7
100
AcDbSpline
 70
8
 71
3
 72
8
 73
4
 74
0
 40
0
 40
0
 40
0
 40
0
 40
1
 40
1
 40
1
 40
1
 10
18.929357
 20
6.839859
 30
0.0
 10
18.484730
 20
6.632999
 30
0.0
 10
18.197596
 20
6.567575
 30
0.0
 10
17.586610
 20
6.533921
 30
0.0
  0
LWPOLYLINE
  5
120
100
AcDbEntity
  8
Ebene_1
 62
7
100
AcDbPolyline
 90
3
 70
0
 10
16.901295
 20
9.761653
 30
0.0
 10
19.494926
 20
7.102985
 30
0.0
 10
18.929357
 20
6.839859
 30
0.0
  0
SPLINE
  5
121
100
AcDbEntity
  8
Ebene_1
 62
7
100
AcDbSpline
 70
8
 71
3
 72
8
 73
4
 74
0
 40
0
 40
0
 40
0
 40
0
 40
1
 40
1
 40
1
 40
1
 10
15.956801
 20
8.221863
 30
0.0
 10
15.956801
 20
8.891796
 30
0.0
 10
15.976981
 20
8.976708
 30
0.0
 10
16.181177
 20
9.165950
 30
0.0
  0
SPLINE
  5
122
100
AcDbEntity
  8
Ebene_1
 62
7
100
AcDbSpline
 70
8
 71
3
 72
8
 73
4
 74
0
 40
0
 40
0
 40
0
 40
0
 40
1
 40
1
 40
1
 40
1
 10
16.181177
 20
9.165950
 30
0.0
 10
16.636642
 20
9.588062
 30
0.0
 10
16.361970
 20
10.279972
 30
0.0
 10
15.738938
 20
10.279972
 30
0.0
  0
SPLINE
  5
123
100
AcDbEntity
  8
Ebene_1
 62
7
100
AcDbSpline
 70
8
 71
3
 72
8
 73
4
 74
0
 40
0
 40
0
 40
0
 40
0
 40
1
 40
1
 40
1
 40
1
 10
15.738938
 20
10.279972
 30
0.0
 10
15.513518
 20
10.279972
 30
0.0
 10
15.381623
 20
10.216782
 30
0.0
 10
15.245310
 20
10.043492
 30
0.0
  0
SPLINE
  5
124
100
AcDbEntity
  8
Ebene_1
 62
7
100
AcDbSpline
 70
8
 71
3
 72
8
 73
4
 74
0
 40
0
 40
0
 40
0
 40
0
 40
1
 40
1
 40
1
 40
1
 10
15.245310
 20
10.043492
 30
0.0
 10
15.000143
 20
9.731814
 30
0.0
 10
15.010677
 20
9.543767
 30
0.0
 10
15.292030
 20
9.209400
 30
0.0
  0
SPLINE
  5
125
100
AcDbEntity
  8
Ebene_1
 62
7
100
AcDbSpline
 70
8
 71
3
 72
8
 73
4
 74
0
 40
0
 40
0
 40
0
 40
0
 40
1
 40
1
 40
1
 40
1
 10
15.292030
 20
9.209400
 30
0.0
 10
15.502109
 20
8.959734
 30
0.0
 10
15.518491
 20
8.887173
 30
0.0
 10
15.460300
 20
8.464077
 30
0.0
  0
LWPOLYLINE
  5
126
100
AcDbEntity
  8
Ebene_1
 62
7
100
AcDbPolyline
 90
5
 70
0
 10
17.586610
 20
6.533921
 30
0.0
 10
16.809431
 20
6.491111
 30
0.0
 10
16.383116
 20
6.988417
 30
0.0
 10
15.956801
 20
7.485723
 30
0.0
 10
15.956801
 20
8.221863
 30
0.0
  0
SPLINE
  5
127
100
AcDbEntity
  8
Ebene_1
 62
7
100
AcDbSpline
 70
8
 71
3
 72
8
 73
4
 74
0
 40
0
 40
0
 40
0
 40
0
 40
1
 40
1
 40
1
 40
1
 10
14.612431
 20
9.742316
 30
0.0
 10
14.610831
 20
10.499726
 30
0.0
 10
14.630791
 20
10.608414
 30
0.0
 10
14.790086
 20
10.707899
 30
0.0
  0
SPLINE
  5
128
100
AcDbEntity
  8
Ebene_1
 62
7
100
AcDbSpline
 70
8
 71
3
 72
8
 73
4
 74
0
 40
0
 40
0
 40
0
 40
0
 40
1
 40
1
 40
1
 40
1
 10
14.790086
 20
10.707899
 30
0.0
 10
15.028523
 20
10.856804
 30
0.0
 10
15.038074
 20
11.446682
 30
0.0
 10
14.805456
 20
11.657198
 30
0.0
  0
SPLINE
  5
129
100
AcDbEntity
  8
Ebene_1
 62
7
100
AcDbSpline
 70
8
 71
3
 72
8
 73
4
 74
0
 40
0
 40
0
 40
0
 40
0
 40
1
 40
1
 40
1
 40
1
 10
14.805456
 20
11.657198
 30
0.0
 10
14.575133
 20
11.865636
 30
0.0
 10
14.049102
 20
11.848773
 30
0.0
 10
13.847948
 20
11.626498
 30
0.0
  0
SPLINE
  5
12a
100
AcDbEntity
  8
Ebene_1
 62
7
100
AcDbSpline
 70
8
 71
3
 72
8
 73
4
 74
0
 40
0
 40
0
 40
0
 40
0
 40
1
 40
1
 40
1
 40
1
 10
13.847948
 20
11.626498
 30
0.0
 10
13.635431
 20
11.391667
 30
0.0
 10
13.654309
 20
10.937471
 30
0.0
 10
13.886878
 20
10.689916
 30
0.0
  0
SPLINE
  5
12b
100
AcDbEntity
  8
Ebene_1
 62
7
100
AcDbSpline
 70
8
 71
3
 72
8
 73
4
 74
0
 40
0
 40
0
 40
0
 40
0
 40
1
 40
1
 40
1
 40
1
 10
13.886878
 20
10.689916
 30
0.0
 10
14.199210
 20
10.357458
 30
0.0
 10
14.092080
 20
10.315127
 30
0.0
 10
13.757958
 20
10.638966
 30
0.0
  0
SPLINE
  5
12c
100
AcDbEntity
  8
Ebene_1
 62
7
100
AcDbSpline
 70
8
 71
3
 72
8
 73
4
 74
0
 40
0
 40
0
 40
0
 40
0
 40
1
 40
1
 40
1
 40
1
 10
13.757958
 20
10.638966
 30
0.0
 10
13.477583
 20
10.910718
 30
0.0
 10
13.443831
 20
10.994012
 30
0.0
 10
13.443831
 20
11.414164
 30
0.0
  0
SPLINE
  5
12d
100
AcDbEntity
  8
Ebene_1
 62
7
100
AcDbSpline
 70
8
 71
3
 72
8
 73
4
 74
0
 40
0
 40
0
 40
0
 40
0
 40
1
 40
1
 40
1
 40
1
 10
13.443831
 20
11.414164
 30
0.0
 10
13.443831
 20
11.876999
 30
0.0
 10
13.434831
 20
11.892844
 30
0.0
 10
12.905327
 20
12.358905
 30
0.0
  0
SPLINE
  5
12e
100
AcDbEntity
  8
Ebene_1
 62
7
100
AcDbSpline
 70
8
 71
3
 72
8
 73
4
 74
0
 40
0
 40
0
 40
0
 40
0
 40
1
 40
1
 40
1
 40
1
 10
12.905327
 20
12.358905
 30
0.0
 10
12.502582
 20
12.713415
 30
0.0
 10
12.366823
 20
12.892707
 30
0.0
 10
12.366823
 20
13.070096
 30
0.0
  0
SPLINE
  5
12f
100
AcDbEntity
  8
Ebene_1
 62
7
100
AcDbSpline
 70
8
 71
3
 72
8
 73
4
 74
0
 40
0
 40
0
 40
0
 40
0
 40
1
 40
1
 40
1
 40
1
 10
12.366823
 20
13.070096
 30
0.0
 10
12.366823
 20
13.447974
 30
0.0
 10
12.048828
 20
13.780239
 30
0.0
 10
11.687180
 20
13.780239
 30
0.0
  0
SPLINE
  5
130
100
AcDbEntity
  8
Ebene_1
 62
7
100
AcDbSpline
 70
8
 71
3
 72
8
 73
4
 74
0
 40
0
 40
0
 40
0
 40
0
 40
1
 40
1
 40
1
 40
1
 10
11.687180
 20
13.780239
 30
0.0
 10
11.287464
 20
13.780239
 30
0.0
 10
11.020564
 20
13.516299
 30
0.0
 10
11.020564
 20
13.121019
 30
0.0
  0
SPLINE
  5
131
100
AcDbEntity
  8
Ebene_1
 62
7
100
AcDbSpline
 70
8
 71
3
 72
8
 73
4
 74
0
 40
0
 40
0
 40
0
 40
0
 40
1
 40
1
 40
1
 40
1
 10
11.020564
 20
13.121019
 30
0.0
 10
11.020564
 20
12.756631
 30
0.0
 10
11.265111
 20
12.508481
 30
0.0
 10
11.642940
 20
12.489479
 30
0.0
  0
SPLINE
  5
132
100
AcDbEntity
  8
Ebene_1
 62
7
100
AcDbSpline
 70
8
 71
3
 72
8
 73
4
 74
0
 40
0
 40
0
 40
0
 40
0
 40
1
 40
1
 40
1
 40
1
 10
11.642940
 20
12.489479
 30
0.0
 10
11.837183
 20
12.479679
 30
0.0
 10
12.042340
 20
12.349705
 30
0.0
 10
12.364932
 20
12.031966
 30
0.0
  0
SPLINE
  5
133
100
AcDbEntity
  8
Ebene_1
 62
7
100
AcDbSpline
 70
8
 71
3
 72
8
 73
4
 74
0
 40
0
 40
0
 40
0
 40
0
 40
1
 40
1
 40
1
 40
1
 10
12.364932
 20
12.031966
 30
0.0
 10
12.788310
 20
11.614952
 30
0.0
 10
12.815576
 20
11.560572
 30
0.0
 10
12.815576
 20
11.133162
 30
0.0
  0
SPLINE
  5
134
100
AcDbEntity
  8
Ebene_1
 62
7
100
AcDbSpline
 70
8
 71
3
 72
8
 73
4
 74
0
 40
0
 40
0
 40
0
 40
0
 40
1
 40
1
 40
1
 40
1
 10
12.815576
 20
11.133162
 30
0.0
 10
12.815576
 20
10.696171
 30
0.0
 10
12.836816
 20
10.657202
 30
0.0
 10
13.354080
 20
10.145340
 30
0.0
  0
SPLINE
  5
135
100
AcDbEntity
  8
Ebene_1
 62
7
100
AcDbSpline
 70
8
 71
3
 72
8
 73
4
 74
0
 40
0
 40
0
 40
0
 40
0
 40
1
 40
1
 40
1
 40
1
 10
13.354080
 20
10.145340
 30
0.0
 10
13.870747
 20
9.634062
 30
0.0
 10
13.892584
 20
9.594082
 30
0.0
 10
13.892584
 20
9.159429
 30
0.0
  0
LWPOLYLINE
  5
136
100
AcDbEntity
  8
Ebene_1
 62
7
100
AcDbPolyline
 90
5
 70
0
 10
15.460300
 20
8.464077
 30
0.0
 10
15.395830
 20
7.995343
 30
0.0
 10
15.005031
 20
8.442092
 30
0.0
 10
14.614231
 20
8.888838
 30
0.0
 10
14.612431
 20
9.742316
 30
0.0
  0
SPLINE
  5
137
100
AcDbEntity
  8
Ebene_1
 62
7
100
AcDbSpline
 70
8
 71
3
 72
8
 73
4
 74
0
 40
0
 40
0
 40
0
 40
0
 40
1
 40
1
 40
1
 40
1
 10
14.924716
 20
7.677196
 30
0.0
 10
15.492389
 20
7.111134
 30
0.0
 10
15.956848
 20
6.617044
 30
0.0
 10
15.956848
 20
6.579215
 30
0.0
  0
SPLINE
  5
138
100
AcDbEntity
  8
Ebene_1
 62
7
100
AcDbSpline
 70
8
 71
3
 72
8
 73
4
 74
0
 40
0
 40
0
 40
0
 40
0
 40
1
 40
1
 40
1
 40
1
 10
15.956848
 20
6.579215
 30
0.0
 10
15.956848
 20
6.507235
 30
0.0
 10
13.286362
 20
6.513745
 30
0.0
 10
8.956300
 20
6.596315
 30
0.0
  0
LWPOLYLINE
  5
139
100
AcDbEntity
  8
Ebene_1
 62
7
100
AcDbPolyline
 90
3
 70
0
 10
13.892584
 20
9.159429
 30
0.0
 10
13.892584
 20
8.706401
 30
0.0
 10
14.924716
 20
7.677196
 30
0.0
  0
SPLINE
  5
13a
100
AcDbEntity
  8
Ebene_1
 62
7
100
AcDbSpline
 70
8
 71
3
 72
8
 73
4
 74
0
 40
0
 40
0
 40
0
 40
0
 40
1
 40
1
 40
1
 40
1
 10
2.727261
 20
2.083753
 30
0.0
 10
2.760471
 20
2.174073
 30
0.0
 10
3.079016
 20
2.986227
 30
0.0
 10
3.435175
 20
3.888542
 30
0.0
  0
SPLINE
  5
13b
100
AcDbEntity
  8
Ebene_1
 62
7
100
AcDbSpline
 70
8
 71
3
 72
8
 73
4
 74
0
 40
0
 40
0
 40
0
 40
0
 40
1
 40
1
 40
1
 40
1
 10
3.435175
 20
3.888542
 30
0.0
 10
4.075460
 20
5.510675
 30
0.0
 10
4.085626
 20
5.528830
 30
0.0
 10
4.339566
 20
5.504053
 30
0.0
  0
SPLINE
  5
13c
100
AcDbEntity
  8
Ebene_1
 62
7
100
AcDbSpline
 70
8
 71
3
 72
8
 73
4
 74
0
 40
0
 40
0
 40
0
 40
0
 40
1
 40
1
 40
1
 40
1
 10
4.339566
 20
5.504053
 30
0.0
 10
4.584825
 20
5.480143
 30
0.0
 10
4.627902
 20
5.400162
 30
0.0
 10
5.295935
 20
3.728857
 30
0.0
  0
SPLINE
  5
13d
100
AcDbEntity
  8
Ebene_1
 62
7
100
AcDbSpline
 70
8
 71
3
 72
8
 73
4
 74
0
 40
0
 40
0
 40
0
 40
0
 40
1
 40
1
 40
1
 40
1
 10
5.295935
 20
3.728857
 30
0.0
 10
5.944463
 20
2.106351
 30
0.0
 10
5.982248
 20
1.976527
 30
0.0
 10
5.814076
 20
1.948681
 30
0.0
  0
SPLINE
  5
13e
100
AcDbEntity
  8
Ebene_1
 62
7
100
AcDbSpline
 70
8
 71
3
 72
8
 73
4
 74
0
 40
0
 40
0
 40
0
 40
0
 40
1
 40
1
 40
1
 40
1
 10
5.814076
 20
1.948681
 30
0.0
 10
5.581805
 20
1.910221
 30
0.0
 10
5.467946
 20
2.028271
 30
0.0
 10
5.284789
 20
2.497442
 30
0.0
  0
LWPOLYLINE
  5
13f
100
AcDbEntity
  8
Ebene_1
 62
7
100
AcDbPolyline
 90
1
 70
1
 10
8.956300
 20
6.596315
 30
0.0
  0
SPLINE
  5
140
100
AcDbEntity
  8
Ebene_1
 62
7
100
AcDbSpline
 70
8
 71
3
 72
8
 73
4
 74
0
 40
0
 40
0
 40
0
 40
0
 40
1
 40
1
 40
1
 40
1
 10
3.354116
 20
2.453111
 30
0.0
 10
3.208058
 20
2.045605
 30
0.0
 10
3.147622
 20
1.974543
 30
0.0
 10
2.925498
 20
1.949126
 30
0.0
  0
SPLINE
  5
141
100
AcDbEntity
  8
Ebene_1
 62
7
100
AcDbSpline
 70
8
 71
3
 72
8
 73
4
 74
0
 40
0
 40
0
 40
0
 40
0
 40
1
 40
1
 40
1
 40
1
 10
2.925498
 20
1.949126
 30
0.0
 10
2.707318
 20
1.924156
 30
0.0
 10
2.676341
 20
1.945226
 30
0.0
 10
2.727261
 20
2.083750
 30
0.0
  0
LWPOLYLINE
  5
142
100
AcDbEntity
  8
Ebene_1
 62
7
100
AcDbPolyline
 90
5
 70
0
 10
5.284789
 20
2.497442
 30
0.0
 10
5.136918
 20
2.876223
 30
0.0
 10
4.330533
 20
2.901863
 30
0.0
 10
3.524148
 20
2.927503
 30
0.0
 10
3.354116
 20
2.453111
 30
0.0
  0
SPLINE
  5
143
100
AcDbEntity
  8
Ebene_1
 62
7
100
AcDbSpline
 70
8
 71
3
 72
8
 73
4
 74
0
 40
0
 40
0
 40
0
 40
0
 40
1
 40
1
 40
1
 40
1
 10
4.934715
 20
3.347416
 30
0.0
 10
4.934376
 20
3.384436
 30
0.0
 10
4.798782
 20
3.773382
 30
0.0
 10
4.633445
 20
4.211736
 30
0.0
  0
SPLINE
  5
144
100
AcDbEntity
  8
Ebene_1
 62
7
100
AcDbSpline
 70
8
 71
3
 72
8
 73
4
 74
0
 40
0
 40
0
 40
0
 40
0
 40
1
 40
1
 40
1
 40
1
 10
4.633445
 20
4.211736
 30
0.0
 10
4.342534
 20
4.983002
 30
0.0
 10
4.329787
 20
5.000394
 30
0.0
 10
4.238714
 20
4.750240
 30
0.0
  0
SPLINE
  5
145
100
AcDbEntity
  8
Ebene_1
 62
7
100
AcDbSpline
 70
8
 71
3
 72
8
 73
4
 74
0
 40
0
 40
0
 40
0
 40
0
 40
1
 40
1
 40
1
 40
1
 10
4.238714
 20
4.750240
 30
0.0
 10
4.186954
 20
4.608061
 30
0.0
 10
4.040154
 20
4.219118
 30
0.0
 10
3.912501
 20
3.885920
 30
0.0
  0
LWPOLYLINE
  5
146
100
AcDbEntity
  8
Ebene_1
 62
7
100
AcDbPolyline
 90
1
 70
1
 10
2.727261
 20
2.083750
 30
0.0
  0
SPLINE
  5
147
100
AcDbEntity
  8
Ebene_1
 62
7
100
AcDbSpline
 70
8
 71
3
 72
8
 73
4
 74
0
 40
0
 40
0
 40
0
 40
0
 40
1
 40
1
 40
1
 40
1
 10
4.307887
 20
3.280103
 30
0.0
 10
4.653001
 20
3.280103
 30
0.0
 10
4.935075
 20
3.310393
 30
0.0
 10
4.934715
 20
3.347413
 30
0.0
  0
LWPOLYLINE
  5
148
100
AcDbEntity
  8
Ebene_1
 62
7
100
AcDbPolyline
 90
3
 70
0
 10
3.912501
 20
3.885920
 30
0.0
 10
3.680404
 20
3.280103
 30
0.0
 10
4.307887
 20
3.280103
 30
0.0
  0
LWPOLYLINE
  5
149
100
AcDbEntity
  8
Ebene_1
 62
7
100
AcDbPolyline
 90
1
 70
1
 10
4.934715
 20
3.347413
 30
0.0
  0
SPLINE
  5
14a
100
AcDbEntity
  8
Ebene_1
 62
7
100
AcDbSpline
 70
8
 71
3
 72
8
 73
4
 74
0
 40
0
 40
0
 40
0
 40
0
 40
1
 40
1
 40
1
 40
1
 10
9.602401
 20
2.095896
 30
0.0
 10
9.602401
 20
1.898658
 30
0.0
 10
9.275191
 20
2.334992
 30
0.0
 10
9.259204
 20
2.415769
 30
0.0
  0
SPLINE
  5
14b
100
AcDbEntity
  8
Ebene_1
 62
7
100
AcDbSpline
 70
8
 71
3
 72
8
 73
4
 74
0
 40
0
 40
0
 40
0
 40
0
 40
1
 40
1
 40
1
 40
1
 10
9.259204
 20
2.415769
 30
0.0
 10
9.216524
 20
2.631412
 30
0.0
 10
9.480867
 20
2.693318
 30
0.0
 10
9.734563
 20
2.527090
 30
0.0
  0
SPLINE
  5
14c
100
AcDbEntity
  8
Ebene_1
 62
7
100
AcDbSpline
 70
8
 71
3
 72
8
 73
4
 74
0
 40
0
 40
0
 40
0
 40
0
 40
1
 40
1
 40
1
 40
1
 10
9.734563
 20
2.527090
 30
0.0
 10
10.247361
 20
2.191090
 30
0.0
 10
11.038410
 20
2.448920
 30
0.0
 10
11.038410
 20
2.952065
 30
0.0
  0
SPLINE
  5
14d
100
AcDbEntity
  8
Ebene_1
 62
7
100
AcDbSpline
 70
8
 71
3
 72
8
 73
4
 74
0
 40
0
 40
0
 40
0
 40
0
 40
1
 40
1
 40
1
 40
1
 10
11.038410
 20
2.952065
 30
0.0
 10
11.038410
 20
3.230082
 30
0.0
 10
10.825006
 20
3.403760
 30
0.0
 10
10.255743
 20
3.589032
 30
0.0
  0
SPLINE
  5
14e
100
AcDbEntity
  8
Ebene_1
 62
7
100
AcDbSpline
 70
8
 71
3
 72
8
 73
4
 74
0
 40
0
 40
0
 40
0
 40
0
 40
1
 40
1
 40
1
 40
1
 10
10.255743
 20
3.589032
 30
0.0
 10
9.616350
 20
3.797127
 30
0.0
 10
9.297349
 20
4.176661
 30
0.0
 10
9.361274
 20
4.653234
 30
0.0
  0
SPLINE
  5
14f
100
AcDbEntity
  8
Ebene_1
 62
7
100
AcDbSpline
 70
8
 71
3
 72
8
 73
4
 74
0
 40
0
 40
0
 40
0
 40
0
 40
1
 40
1
 40
1
 40
1
 10
9.361274
 20
4.653234
 30
0.0
 10
9.418724
 20
5.081558
 30
0.0
 10
9.709746
 20
5.408069
 30
0.0
 10
10.135060
 20
5.521381
 30
0.0
  0
SPLINE
  5
150
100
AcDbEntity
  8
Ebene_1
 62
7
100
AcDbSpline
 70
8
 71
3
 72
8
 73
4
 74
0
 40
0
 40
0
 40
0
 40
0
 40
1
 40
1
 40
1
 40
1
 10
10.135060
 20
5.521381
 30
0.0
 10
10.657122
 20
5.660465
 30
0.0
 10
11.397415
 20
5.421731
 30
0.0
 10
11.397415
 20
5.114299
 30
0.0
  0
SPLINE
  5
151
100
AcDbEntity
  8
Ebene_1
 62
7
100
AcDbSpline
 70
8
 71
3
 72
8
 73
4
 74
0
 40
0
 40
0
 40
0
 40
0
 40
1
 40
1
 40
1
 40
1
 10
11.397415
 20
5.114299
 30
0.0
 10
11.397415
 20
4.903941
 30
0.0
 10
11.222200
 20
4.879131
 30
0.0
 10
10.820379
 20
5.032589
 30
0.0
  0
SPLINE
  5
152
100
AcDbEntity
  8
Ebene_1
 62
7
100
AcDbSpline
 70
8
 71
3
 72
8
 73
4
 74
0
 40
0
 40
0
 40
0
 40
0
 40
1
 40
1
 40
1
 40
1
 10
10.820379
 20
5.032589
 30
0.0
 10
10.480703
 20
5.162315
 30
0.0
 10
10.392307
 20
5.166182
 30
0.0
 10
10.171814
 20
5.060979
 30
0.0
  0
SPLINE
  5
153
100
AcDbEntity
  8
Ebene_1
 62
7
100
AcDbSpline
 70
8
 71
3
 72
8
 73
4
 74
0
 40
0
 40
0
 40
0
 40
0
 40
1
 40
1
 40
1
 40
1
 10
10.171814
 20
5.060979
 30
0.0
 10
9.996908
 20
4.977529
 30
0.0
 10
9.907423
 20
4.859956
 30
0.0
 10
9.887606
 20
4.687591
 30
0.0
  0
SPLINE
  5
154
100
AcDbEntity
  8
Ebene_1
 62
7
100
AcDbSpline
 70
8
 71
3
 72
8
 73
4
 74
0
 40
0
 40
0
 40
0
 40
0
 40
1
 40
1
 40
1
 40
1
 10
9.887606
 20
4.687591
 30
0.0
 10
9.849106
 20
4.352664
 30
0.0
 10
9.979256
 20
4.215923
 30
0.0
 10
10.501738
 20
4.042384
 30
0.0
  0
SPLINE
  5
155
100
AcDbEntity
  8
Ebene_1
 62
7
100
AcDbSpline
 70
8
 71
3
 72
8
 73
4
 74
0
 40
0
 40
0
 40
0
 40
0
 40
1
 40
1
 40
1
 40
1
 10
10.501738
 20
4.042384
 30
0.0
 10
11.336000
 20
3.765286
 30
0.0
 10
11.651561
 20
3.352136
 30
0.0
 10
11.489277
 20
2.749453
 30
0.0
  0
SPLINE
  5
156
100
AcDbEntity
  8
Ebene_1
 62
7
100
AcDbSpline
 70
8
 71
3
 72
8
 73
4
 74
0
 40
0
 40
0
 40
0
 40
0
 40
1
 40
1
 40
1
 40
1
 10
11.489277
 20
2.749453
 30
0.0
 10
11.349117
 20
2.228934
 30
0.0
 10
11.038379
 20
1.996009
 30
0.0
 10
10.431364
 20
1.956450
 30
0.0
  0
SPLINE
  5
157
100
AcDbEntity
  8
Ebene_1
 62
7
100
AcDbSpline
 70
8
 71
3
 72
8
 73
4
 74
0
 40
0
 40
0
 40
0
 40
0
 40
1
 40
1
 40
1
 40
1
 10
10.431364
 20
1.956450
 30
0.0
 10
10.044405
 20
1.931250
 30
0.0
 10
9.602401
 20
2.096651
 30
0.0
 10
9.602401
 20
2.095904
 30
0.0
  0
LWPOLYLINE
  5
158
100
AcDbEntity
  8
Ebene_1
 62
7
100
AcDbPolyline
 90
8
 70
1
 10
7.268884
 20
3.722893
 30
0.0
 10
7.268884
 20
5.523867
 30
0.0
 10
7.540035
 20
5.523867
 30
0.0
 10
7.811183
 20
5.523867
 30
0.0
 10
7.786863
 20
3.751292
 30
0.0
 10
7.762543
 20
1.978718
 30
0.0
 10
7.515730
 20
1.950328
 30
0.0
 10
7.268914
 20
1.921938
 30
0.0
  0
LWPOLYLINE
  5
159
100
AcDbEntity
  8
Ebene_1
 62
7
100
AcDbPolyline
 90
1
 70
1
 10
9.602401
 20
2.095904
 30
0.0
  0
SPLINE
  5
15a
100
AcDbEntity
  8
Ebene_1
 62
7
100
AcDbSpline
 70
8
 71
3
 72
8
 73
4
 74
0
 40
0
 40
0
 40
0
 40
0
 40
1
 40
1
 40
1
 40
1
 10
14.314310
 20
2.382598
 30
0.0
 10
15.068216
 20
2.382598
 30
0.0
 10
15.077188
 20
2.379898
 30
0.0
 10
15.077188
 20
2.158220
 30
0.0
  0
LWPOLYLINE
  5
15b
100
AcDbEntity
  8
Ebene_1
 62
7
100
AcDbPolyline
 90
7
 70
0
 10
13.012926
 20
3.728857
 30
0.0
 10
13.012926
 20
5.523867
 30
0.0
 10
13.282178
 20
5.523867
 30
0.0
 10
13.551430
 20
5.523867
 30
0.0
 10
13.551430
 20
3.953231
 30
0.0
 10
13.551430
 20
2.382598
 30
0.0
 10
14.314310
 20
2.382598
 30
0.0
  0
LWPOLYLINE
  5
15c
100
AcDbEntity
  8
Ebene_1
 62
7
100
AcDbPolyline
 90
5
 70
0
 10
15.077188
 20
2.158220
 30
0.0
 10
15.077188
 20
1.933843
 30
0.0
 10
14.045058
 20
1.933843
 30
0.0
 10
13.012926
 20
1.933843
 30
0.0
 10
13.012926
 20
3.728857
 30
0.0
  0
SPLINE
  5
15d
100
AcDbEntity
  8
Ebene_1
 62
7
100
AcDbSpline
 70
8
 71
3
 72
8
 73
4
 74
0
 40
0
 40
0
 40
0
 40
0
 40
1
 40
1
 40
1
 40
1
 10
18.577462
 20
5.299490
 30
0.0
 10
18.577462
 20
5.075903
 30
0.0
 10
18.574362
 20
5.075116
 30
0.0
 10
17.724832
 20
5.075116
 30
0.0
  0
LWPOLYLINE
  5
15e
100
AcDbEntity
  8
Ebene_1
 62
7
100
AcDbPolyline
 90
5
 70
0
 10
16.333698
 20
3.728857
 30
0.0
 10
16.333698
 20
5.523867
 30
0.0
 10
17.455580
 20
5.523867
 30
0.0
 10
18.577462
 20
5.523867
 30
0.0
 10
18.577462
 20
5.299490
 30
0.0
  0
SPLINE
  5
15f
100
AcDbEntity
  8
Ebene_1
 62
7
100
AcDbSpline
 70
8
 71
3
 72
8
 73
4
 74
0
 40
0
 40
0
 40
0
 40
0
 40
1
 40
1
 40
1
 40
1
 10
17.590207
 20
3.998109
 30
0.0
 10
18.296246
 20
3.998109
 30
0.0
 10
18.308210
 20
3.994409
 30
0.0
 10
18.308210
 20
3.773732
 30
0.0
  0
SPLINE
  5
160
100
AcDbEntity
  8
Ebene_1
 62
7
100
AcDbSpline
 70
8
 71
3
 72
8
 73
4
 74
0
 40
0
 40
0
 40
0
 40
0
 40
1
 40
1
 40
1
 40
1
 10
18.308210
 20
3.773732
 30
0.0
 10
18.308210
 20
3.553093
 30
0.0
 10
18.296240
 20
3.549354
 30
0.0
 10
17.590207
 20
3.549354
 30
0.0
  0
LWPOLYLINE
  5
161
100
AcDbEntity
  8
Ebene_1
 62
7
100
AcDbPolyline
 90
5
 70
0
 10
17.724832
 20
5.075116
 30
0.0
 10
16.872201
 20
5.075116
 30
0.0
 10
16.872201
 20
4.536612
 30
0.0
 10
16.872201
 20
3.998109
 30
0.0
 10
17.590207
 20
3.998109
 30
0.0
  0
SPLINE
  5
162
100
AcDbEntity
  8
Ebene_1
 62
7
100
AcDbSpline
 70
8
 71
3
 72
8
 73
4
 74
0
 40
0
 40
0
 40
0
 40
0
 40
1
 40
1
 40
1
 40
1
 10
17.724832
 20
2.382598
 30
0.0
 10
18.574473
 20
2.382598
 30
0.0
 10
18.577462
 20
2.381919
 30
0.0
 10
18.577462
 20
2.158220
 30
0.0
  0
LWPOLYLINE
  5
163
100
AcDbEntity
  8
Ebene_1
 62
7
100
AcDbPolyline
 90
5
 70
0
 10
17.590207
 20
3.549354
 30
0.0
 10
16.872201
 20
3.549354
 30
0.0
 10
16.872201
 20
2.965976
 30
0.0
 10
16.872201
 20
2.382598
 30
0.0
 10
17.724832
 20
2.382598
 30
0.0
  0
LWPOLYLINE
  5
164
100
AcDbEntity
  8
Ebene_1
 62
7
100
AcDbPolyline
 90
5
 70
0
 10
18.577462
 20
2.158220
 30
0.0
 10
18.577462
 20
1.933843
 30
0.0
 10
17.455580
 20
1.933843
 30
0.0
 10
16.333698
 20
1.933843
 30
0.0
 10
16.333698
 20
3.728857
 30
0.0
  0
SPLINE
  5
165
100
AcDbEntity
  8
Ebene_1
 62
7
100
AcDbSpline
 70
8
 71
3
 72
8
 73
4
 74
0
 40
0
 40
0
 40
0
 40
0
 40
1
 40
1
 40
1
 40
1
 10
20.800192
 20
5.523867
 30
0.0
 10
21.787280
 20
5.523867
 30
0.0
 10
22.152479
 20
5.360155
 30
0.0
 10
22.339077
 20
4.834012
 30
0.0
  0
SPLINE
  5
166
100
AcDbEntity
  8
Ebene_1
 62
7
100
AcDbSpline
 70
8
 71
3
 72
8
 73
4
 74
0
 40
0
 40
0
 40
0
 40
0
 40
1
 40
1
 40
1
 40
1
 10
22.339077
 20
4.834012
 30
0.0
 10
22.454044
 20
4.509845
 30
0.0
 10
22.449885
 20
4.444139
 30
0.0
 10
22.294207
 20
4.125229
 30
0.0
  0
SPLINE
  5
167
100
AcDbEntity
  8
Ebene_1
 62
7
100
AcDbSpline
 70
8
 71
3
 72
8
 73
4
 74
0
 40
0
 40
0
 40
0
 40
0
 40
1
 40
1
 40
1
 40
1
 10
22.294207
 20
4.125229
 30
0.0
 10
22.195767
 20
3.923570
 30
0.0
 10
22.006885
 20
3.717813
 30
0.0
 10
21.851131
 20
3.642557
 30
0.0
  0
LWPOLYLINE
  5
168
100
AcDbEntity
  8
Ebene_1
 62
7
100
AcDbPolyline
 90
3
 70
0
 10
20.013474
 20
3.728857
 30
0.0
 10
20.013474
 20
5.523867
 30
0.0
 10
20.800192
 20
5.523867
 30
0.0
  0
SPLINE
  5
169
100
AcDbEntity
  8
Ebene_1
 62
7
100
AcDbSpline
 70
8
 71
3
 72
8
 73
4
 74
0
 40
0
 40
0
 40
0
 40
0
 40
1
 40
1
 40
1
 40
1
 10
22.142818
 20
2.755985
 30
0.0
 10
22.452564
 20
2.340517
 30
0.0
 10
22.705997
 20
1.985574
 30
0.0
 10
22.705997
 20
1.967219
 30
0.0
  0
SPLINE
  5
16a
100
AcDbEntity
  8
Ebene_1
 62
7
100
AcDbSpline
 70
8
 71
3
 72
8
 73
4
 74
0
 40
0
 40
0
 40
0
 40
0
 40
1
 40
1
 40
1
 40
1
 10
22.705997
 20
1.967219
 30
0.0
 10
22.705997
 20
1.948869
 30
0.0
 10
22.586647
 20
1.933839
 30
0.0
 10
22.440778
 20
1.933839
 30
0.0
  0
SPLINE
  5
16b
100
AcDbEntity
  8
Ebene_1
 62
7
100
AcDbSpline
 70
8
 71
3
 72
8
 73
4
 74
0
 40
0
 40
0
 40
0
 40
0
 40
1
 40
1
 40
1
 40
1
 10
22.440778
 20
1.933839
 30
0.0
 10
22.214637
 20
1.933839
 30
0.0
 10
22.095030
 20
2.039626
 30
0.0
 10
21.628989
 20
2.651842
 30
0.0
  0
SPLINE
  5
16c
100
AcDbEntity
  8
Ebene_1
 62
7
100
AcDbSpline
 70
8
 71
3
 72
8
 73
4
 74
0
 40
0
 40
0
 40
0
 40
0
 40
1
 40
1
 40
1
 40
1
 10
21.628989
 20
2.651842
 30
0.0
 10
21.162949
 20
3.264057
 30
0.0
 10
21.043341
 20
3.369848
 30
0.0
 10
20.817200
 20
3.369848
 30
0.0
  0
LWPOLYLINE
  5
16d
100
AcDbEntity
  8
Ebene_1
 62
7
100
AcDbPolyline
 90
3
 70
0
 10
21.851131
 20
3.642557
 30
0.0
 10
21.579644
 20
3.511383
 30
0.0
 10
22.142818
 20
2.755985
 30
0.0
  0
SPLINE
  5
16e
100
AcDbEntity
  8
Ebene_1
 62
7
100
AcDbSpline
 70
8
 71
3
 72
8
 73
4
 74
0
 40
0
 40
0
 40
0
 40
0
 40
1
 40
1
 40
1
 40
1
 10
21.718721
 20
4.895614
 30
0.0
 10
21.582737
 20
5.031598
 30
0.0
 10
21.419554
 20
5.075116
 30
0.0
 10
21.045593
 20
5.075116
 30
0.0
  0
LWPOLYLINE
  5
16f
100
AcDbEntity
  8
Ebene_1
 62
7
100
AcDbPolyline
 90
7
 70
0
 10
20.817200
 20
3.369848
 30
0.0
 10
20.551982
 20
3.369848
 30
0.0
 10
20.551982
 20
2.651842
 30
0.0
 10
20.551982
 20
1.933839
 30
0.0
 10
20.282730
 20
1.933839
 30
0.0
 10
20.013478
 20
1.933839
 30
0.0
 10
20.013474
 20
3.728857
 30
0.0
  0
SPLINE
  5
170
100
AcDbEntity
  8
Ebene_1
 62
7
100
AcDbSpline
 70
8
 71
3
 72
8
 73
4
 74
0
 40
0
 40
0
 40
0
 40
0
 40
1
 40
1
 40
1
 40
1
 10
21.060502
 20
3.838548
 30
0.0
 10
21.840254
 20
3.862568
 30
0.0
 10
22.219969
 20
4.356454
 30
0.0
 10
21.718721
 20
4.895613
 30
0.0
  0
LWPOLYLINE
  5
171
100
AcDbEntity
  8
Ebene_1
 62
7
100
AcDbPolyline
 90
5
 70
0
 10
21.045593
 20
5.075116
 30
0.0
 10
20.551964
 20
5.075116
 30
0.0
 10
20.551964
 20
4.435747
 30
0.0
 10
20.551964
 20
3.796378
 30
0.0
 10
21.060502
 20
3.838548
 30
0.0
  0
SPLINE
  5
172
100
AcDbEntity
  8
Ebene_1
 62
7
100
AcDbSpline
 70
8
 71
3
 72
8
 73
4
 74
0
 40
0
 40
0
 40
0
 40
0
 40
1
 40
1
 40
1
 40
1
 10
15.485620
 20
9.299904
 30
0.0
 10
15.267999
 20
9.426655
 30
0.0
 10
15.278780
 20
9.888014
 30
0.0
 10
15.502160
 20
10.007560
 30
0.0
  0
SPLINE
  5
173
100
AcDbEntity
  8
Ebene_1
 62
7
100
AcDbSpline
 70
8
 71
3
 72
8
 73
4
 74
0
 40
0
 40
0
 40
0
 40
0
 40
1
 40
1
 40
1
 40
1
 10
15.502160
 20
10.007560
 30
0.0
 10
15.776214
 20
10.154230
 30
0.0
 10
15.941240
 20
10.117924
 30
0.0
 10
16.099693
 20
9.876094
 30
0.0
  0
SPLINE
  5
174
100
AcDbEntity
  8
Ebene_1
 62
7
100
AcDbSpline
 70
8
 71
3
 72
8
 73
4
 74
0
 40
0
 40
0
 40
0
 40
0
 40
1
 40
1
 40
1
 40
1
 10
16.099693
 20
9.876094
 30
0.0
 10
16.235881
 20
9.668243
 30
0.0
 10
16.235881
 20
9.635190
 30
0.0
 10
16.099693
 20
9.427340
 30
0.0
  0
SPLINE
  5
175
100
AcDbEntity
  8
Ebene_1
 62
7
100
AcDbSpline
 70
8
 71
3
 72
8
 73
4
 74
0
 40
0
 40
0
 40
0
 40
0
 40
1
 40
1
 40
1
 40
1
 10
16.099693
 20
9.427340
 30
0.0
 10
15.944339
 20
9.190242
 30
0.0
 10
15.744946
 20
9.148861
 30
0.0
 10
15.485623
 20
9.299904
 30
0.0
  0
LWPOLYLINE
  5
176
100
AcDbEntity
  8
Ebene_1
 62
7
100
AcDbPolyline
 90
1
 70
1
 10
21.718721
 20
4.895613
 30
0.0
  0
SPLINE
  5
177
100
AcDbEntity
  8
Ebene_1
 62
7
100
AcDbSpline
 70
8
 71
3
 72
8
 73
4
 74
0
 40
0
 40
0
 40
0
 40
0
 40
1
 40
1
 40
1
 40
1
 10
14.041083
 20
10.892853
 30
0.0
 10
13.845034
 20
11.109486
 30
0.0
 10
13.853500
 20
11.293819
 30
0.0
 10
14.068433
 20
11.488332
 30
0.0
  0
SPLINE
  5
178
100
AcDbEntity
  8
Ebene_1
 62
7
100
AcDbSpline
 70
8
 71
3
 72
8
 73
4
 74
0
 40
0
 40
0
 40
0
 40
0
 40
1
 40
1
 40
1
 40
1
 10
14.068433
 20
11.488332
 30
0.0
 10
14.472739
 20
11.854223
 30
0.0
 10
15.018047
 20
11.308914
 30
0.0
 10
14.652154
 20
10.904607
 30
0.0
  0
SPLINE
  5
179
100
AcDbEntity
  8
Ebene_1
 62
7
100
AcDbSpline
 70
8
 71
3
 72
8
 73
4
 74
0
 40
0
 40
0
 40
0
 40
0
 40
1
 40
1
 40
1
 40
1
 10
14.652154
 20
10.904607
 30
0.0
 10
14.452965
 20
10.684508
 30
0.0
 10
14.233456
 20
10.680284
 30
0.0
 10
14.041084
 20
10.892867
 30
0.0
  0
LWPOLYLINE
  5
17a
100
AcDbEntity
  8
Ebene_1
 62
7
100
AcDbPolyline
 90
1
 70
1
 10
15.485623
 20
9.299904
 30
0.0
  0
SPLINE
  5
17b
100
AcDbEntity
  8
Ebene_1
 62
7
100
AcDbSpline
 70
8
 71
3
 72
8
 73
4
 74
0
 40
0
 40
0
 40
0
 40
0
 40
1
 40
1
 40
1
 40
1
 10
17.190882
 20
10.825663
 30
0.0
 10
17.010462
 20
10.930748
 30
0.0
 10
16.980087
 20
11.357097
 30
0.0
 10
17.141522
 20
11.518530
 30
0.0
  0
SPLINE
  5
17c
100
AcDbEntity
  8
Ebene_1
 62
7
100
AcDbSpline
 70
8
 71
3
 72
8
 73
4
 74
0
 40
0
 40
0
 40
0
 40
0
 40
1
 40
1
 40
1
 40
1
 10
17.141522
 20
11.518530
 30
0.0
 10
17.200762
 20
11.577770
 30
0.0
 10
17.334037
 20
11.626230
 30
0.0
 10
17.437699
 20
11.626230
 30
0.0
  0
SPLINE
  5
17d
100
AcDbEntity
  8
Ebene_1
 62
7
100
AcDbSpline
 70
8
 71
3
 72
8
 73
4
 74
0
 40
0
 40
0
 40
0
 40
0
 40
1
 40
1
 40
1
 40
1
 10
17.437699
 20
11.626230
 30
0.0
 10
17.541361
 20
11.626230
 30
0.0
 10
17.674641
 20
11.577770
 30
0.0
 10
17.733876
 20
11.518530
 30
0.0
  0
SPLINE
  5
17e
100
AcDbEntity
  8
Ebene_1
 62
7
100
AcDbSpline
 70
8
 71
3
 72
8
 73
4
 74
0
 40
0
 40
0
 40
0
 40
0
 40
1
 40
1
 40
1
 40
1
 10
17.733876
 20
11.518530
 30
0.0
 10
17.904534
 20
11.347871
 30
0.0
 10
17.864729
 20
10.926932
 30
0.0
 10
17.667976
 20
10.821633
 30
0.0
  0
SPLINE
  5
17f
100
AcDbEntity
  8
Ebene_1
 62
7
100
AcDbSpline
 70
8
 71
3
 72
8
 73
4
 74
0
 40
0
 40
0
 40
0
 40
0
 40
1
 40
1
 40
1
 40
1
 10
17.667976
 20
10.821633
 30
0.0
 10
17.455867
 20
10.708115
 30
0.0
 10
17.391774
 20
10.708657
 30
0.0
 10
17.190885
 20
10.825633
 30
0.0
  0
LWPOLYLINE
  5
180
100
AcDbEntity
  8
Ebene_1
 62
7
100
AcDbPolyline
 90
1
 70
1
 10
14.041084
 20
10.892867
 30
0.0
  0
SPLINE
  5
181
100
AcDbEntity
  8
Ebene_1
 62
7
100
AcDbSpline
 70
8
 71
3
 72
8
 73
4
 74
0
 40
0
 40
0
 40
0
 40
0
 40
1
 40
1
 40
1
 40
1
 10
15.705509
 20
12.272435
 30
0.0
 10
15.534148
 20
12.443796
 30
0.0
 10
15.580271
 20
12.770528
 30
0.0
 10
15.797279
 20
12.922527
 30
0.0
  0
SPLINE
  5
182
100
AcDbEntity
  8
Ebene_1
 62
7
100
AcDbSpline
 70
8
 71
3
 72
8
 73
4
 74
0
 40
0
 40
0
 40
0
 40
0
 40
1
 40
1
 40
1
 40
1
 10
15.797279
 20
12.922527
 30
0.0
 10
15.906988
 20
12.999367
 30
0.0
 10
16.028151
 20
13.062243
 30
0.0
 10
16.066531
 20
13.062243
 30
0.0
  0
SPLINE
  5
183
100
AcDbEntity
  8
Ebene_1
 62
7
100
AcDbSpline
 70
8
 71
3
 72
8
 73
4
 74
0
 40
0
 40
0
 40
0
 40
0
 40
1
 40
1
 40
1
 40
1
 10
16.066531
 20
13.062243
 30
0.0
 10
16.185474
 20
13.062243
 30
0.0
 10
16.495314
 20
12.710175
 30
0.0
 10
16.495314
 20
12.575025
 30
0.0
  0
SPLINE
  5
184
100
AcDbEntity
  8
Ebene_1
 62
7
100
AcDbSpline
 70
8
 71
3
 72
8
 73
4
 74
0
 40
0
 40
0
 40
0
 40
0
 40
1
 40
1
 40
1
 40
1
 10
16.495314
 20
12.575025
 30
0.0
 10
16.495314
 20
12.245542
 30
0.0
 10
15.943726
 20
12.034218
 30
0.0
 10
15.705509
 20
12.272435
 30
0.0
  0
LWPOLYLINE
  5
185
100
AcDbEntity
  8
Ebene_1
 62
7
100
AcDbPolyline
 90
1
 70
1
 10
17.190885
 20
10.825633
 30
0.0
  0
SPLINE
  5
186
100
AcDbEntity
  8
Ebene_1
 62
7
100
AcDbSpline
 70
8
 71
3
 72
8
 73
4
 74
0
 40
0
 40
0
 40
0
 40
0
 40
1
 40
1
 40
1
 40
1
 10
11.330344
 20
12.921597
 30
0.0
 10
11.060065
 20
13.334096
 30
0.0
 10
11.561511
 20
13.788766
 30
0.0
 10
11.924465
 20
13.460298
 30
0.0
  0
SPLINE
  5
187
100
AcDbEntity
  8
Ebene_1
 62
7
100
AcDbSpline
 70
8
 71
3
 72
8
 73
4
 74
0
 40
0
 40
0
 40
0
 40
0
 40
1
 40
1
 40
1
 40
1
 10
11.924465
 20
13.460298
 30
0.0
 10
12.134174
 20
13.270514
 30
0.0
 10
12.146460
 20
13.034237
 30
0.0
 10
11.956495
 20
12.844277
 30
0.0
  0
SPLINE
  5
188
100
AcDbEntity
  8
Ebene_1
 62
7
100
AcDbSpline
 70
8
 71
3
 72
8
 73
4
 74
0
 40
0
 40
0
 40
0
 40
0
 40
1
 40
1
 40
1
 40
1
 10
11.956495
 20
12.844277
 30
0.0
 10
11.751693
 20
12.639472
 30
0.0
 10
11.494377
 20
12.671246
 30
0.0
 10
11.330342
 20
12.921597
 30
0.0
  0
LWPOLYLINE
  5
189
100
AcDbEntity
  8
Ebene_1
 62
7
100
AcDbPolyline
 90
1
 70
1
 10
15.705509
 20
12.272435
 30
0.0
  0
SPLINE
  5
18a
100
AcDbEntity
  8
Ebene_1
 62
7
100
AcDbSpline
 70
8
 71
3
 72
8
 73
4
 74
0
 40
0
 40
0
 40
0
 40
0
 40
1
 40
1
 40
1
 40
1
 10
13.764332
 20
12.844277
 30
0.0
 10
13.572493
 20
13.036113
 30
0.0
 10
13.587150
 20
13.270962
 30
0.0
 10
13.803162
 20
13.466448
 30
0.0
  0
SPLINE
  5
18b
100
AcDbEntity
  8
Ebene_1
 62
7
100
AcDbSpline
 70
8
 71
3
 72
8
 73
4
 74
0
 40
0
 40
0
 40
0
 40
0
 40
1
 40
1
 40
1
 40
1
 10
13.803162
 20
13.466448
 30
0.0
 10
14.173867
 20
13.801931
 30
0.0
 10
14.716211
 20
13.247423
 30
0.0
 10
14.380356
 20
12.876309
 30
0.0
  0
SPLINE
  5
18c
100
AcDbEntity
  8
Ebene_1
 62
7
100
AcDbSpline
 70
8
 71
3
 72
8
 73
4
 74
0
 40
0
 40
0
 40
0
 40
0
 40
1
 40
1
 40
1
 40
1
 10
14.380356
 20
12.876309
 30
0.0
 10
14.190572
 20
12.666599
 30
0.0
 10
13.954295
 20
12.654313
 30
0.0
 10
13.764333
 20
12.844289
 30
0.0
  0
LWPOLYLINE
  5
18d
100
AcDbEntity
  8
Ebene_1
 62
7
100
AcDbPolyline
 90
1
 70
1
 10
11.330342
 20
12.921597
 30
0.0
  0
LWPOLYLINE
  5
18e
100
AcDbEntity
  8
Ebene_1
 62
7
100
AcDbPolyline
 90
1
 70
1
 10
13.764333
 20
12.844289
 30
0.0
  0
ENDSEC
  0
SECTION
  2
OBJECTS
  0
DICTIONARY
  5
C
330
0
100
AcDbDictionary
  3
ACAD_GROUP
350
D
  3
ACAD_MLINESTYLE
350
17
  0
DICTIONARY
  5
D
330
C
100
AcDbDictionary
  0
DICTIONARY
  5
1A
330
C
100
AcDbDictionary
  0
DICTIONARY
  5
17
330
C
100
AcDbDictionary
  3
STANDARD
350
18
  0
DICTIONARY
  5
19
330
C
100
AcDbDictionary
  0
ENDSEC
  0
EOF
